<svg xmlns="http://www.w3.org/2000/svg" viewBox="311 156 612 672" width="612" height="672" role="img" aria-label="Access Academy">
  <defs>
    <linearGradient id="aaBg" gradientUnits="userSpaceOnUse" x1="311" y1="828" x2="923" y2="156">
      <stop offset="0" stop-color="#F2EFFD"/>
      <stop offset="1" stop-color="#EAF7FB"/>
    </linearGradient>
    <linearGradient id="aaMark" gradientUnits="userSpaceOnUse" x1="351" y1="689" x2="877" y2="300">
      <stop offset="0" stop-color="#7B34F8"/>
      <stop offset="0.35" stop-color="#4340E8"/>
      <stop offset="0.65" stop-color="#2072E8"/>
      <stop offset="1" stop-color="#12C7E8"/>
    </linearGradient>
  </defs>
  <rect x="311" y="156" width="612" height="672" rx="150" fill="url(#aaBg)"/>
  <!-- Mortier de diplômé (Access Academy) -->
  <g fill="url(#aaMark)">
    <polygon points="365,290 500,232 638,290 500,348"/>
    <rect x="452" y="316" width="96" height="34" rx="10"/>
    <rect x="386" y="298" width="9" height="86" rx="4"/>
    <circle cx="390.5" cy="392" r="14"/>
  </g>
  <!-- Monogramme DA officiel, décalé sous le mortier -->
  <g transform="translate(0,62)">
    <g transform="translate(0,1254) scale(0.1,-0.1)" fill="url(#aaMark)">
      <path d="M4120 8185 c0 -804 4 -1335 9 -1335 5 0 20 17 32 38 13 20 124 189 246 375 l223 338 0 695 0 694 949 0 c587 0 988 -4 1052 -10 481 -49 883 -338 1098 -791 91 -189 131 -375 131 -600 0 -510 -250 -948 -692 -1211 -40 -24 -73 -37 -78 -32 -4 5 -44 65 -88 134 -43 69 -119 187 -168 263 -148 229 -245 382 -564 886 l-305 481 -241 0 -242 0 -129 -202 c-72 -112 -199 -311 -283 -443 -163 -254 -524 -817 -723 -1125 -196 -303 -377 -589 -383 -605 -5 -13 29 -15 285 -15 l290 0 12 23 c6 12 35 58 64 102 76 116 710 1091 924 1423 l183 283 28 -38 c25 -34 171 -262 700 -1088 91 -143 230 -360 309 -482 l142 -221 67 18 c447 124 847 419 1100 810 123 190 231 453 272 668 41 211 44 509 6 717 -52 293 -182 590 -364 835 -71 95 -234 264 -332 343 -221 178 -503 313 -795 379 l-100 22 -1317 3 -1318 3 0 -1335z"/>
      <path d="M5540 6220 c0 -9 152 -249 262 -412 l59 -88 274 0 c151 0 275 2 275 5 0 5 -126 204 -253 398 l-70 107 -273 0 c-167 0 -274 -4 -274 -10z"/>
    </g>
  </g>
</svg>
