<svg xmlns="http://www.w3.org/2000/svg" viewBox="220 284 809 667" width="809" height="667" role="img" aria-label="Digital Access">
  <title>Digital Access</title>
  <defs>
    <linearGradient id="daGradient" gradientUnits="userSpaceOnUse" x1="351" y1="689" x2="877" y2="300">
      <stop offset="0" stop-color="#7B34F8"/>
      <stop offset="0.35" stop-color="#4340E8"/>
      <stop offset="0.65" stop-color="#2072E8"/>
      <stop offset="1" stop-color="#12C7E8"/>
    </linearGradient>
    <linearGradient id="daGradientLine" gradientUnits="userSpaceOnUse" x1="225" y1="0" x2="1028" y2="0">
      <stop offset="0" stop-color="#7B34F8"/>
      <stop offset="0.5" stop-color="#2072E8"/>
      <stop offset="1" stop-color="#12C7E8"/>
    </linearGradient>
  </defs>
  <g transform="translate(0.000000,1254.000000) scale(0.100000,-0.100000)">
    <g id="monogram" fill="url(#daGradient)">
      <path d="M4120 8185 c0 -804 4 -1335 9 -1335 5 0 20 17 32 38 13 20 124 189
246 375 l223 338 0 695 0 694 949 0 c587 0 988 -4 1052 -10 481 -49 883 -338
1098 -791 91 -189 131 -375 131 -600 0 -510 -250 -948 -692 -1211 -40 -24 -73
-37 -78 -32 -4 5 -44 65 -88 134 -43 69 -119 187 -168 263 -148 229 -245 382
-564 886 l-305 481 -241 0 -242 0 -129 -202 c-72 -112 -199 -311 -283 -443
-163 -254 -524 -817 -723 -1125 -196 -303 -377 -589 -383 -605 -5 -13 29 -15
285 -15 l290 0 12 23 c6 12 35 58 64 102 76 116 710 1091 924 1423 l183 283
28 -38 c25 -34 171 -262 700 -1088 91 -143 230 -360 309 -482 l142 -221 67 18
c447 124 847 419 1100 810 123 190 231 453 272 668 41 211 44 509 6 717 -52
293 -182 590 -364 835 -71 95 -234 264 -332 343 -221 178 -503 313 -795 379
l-100 22 -1317 3 -1318 3 0 -1335z"/>
      <path d="M5540 6220 c0 -9 152 -249 262 -412 l59 -88 274 0 c151 0 275 2 275
5 0 5 -126 204 -253 398 l-70 107 -273 0 c-167 0 -274 -4 -274 -10z"/>
    </g>
    <g id="wordmark-digital" fill="#0A0A0A">
      <path d="M4908 4937 c-127 -44 -221 -126 -275 -243 -26 -54 -28 -69 -28 -179
0 -115 1 -123 32 -186 58 -117 173 -208 308 -244 132 -34 319 -9 439 60 105
60 97 39 94 236 l-3 174 -202 3 -203 2 0 -65 0 -65 135 0 135 0 0 -80 0 -80
-40 -20 c-63 -32 -167 -53 -240 -47 -130 9 -230 68 -285 168 -27 49 -30 63
-30 144 0 74 4 97 23 133 36 68 87 117 154 148 56 26 74 29 163 29 108 0 156
-13 229 -63 l39 -27 44 50 43 50 -22 18 c-38 30 -140 79 -193 93 -82 22 -238
18 -317 -9z"/>
      <path d="M2388 4515 l-3 -436 285 3 c267 3 289 5 340 26 111 45 199 131 241
239 33 83 33 254 1 332 -48 114 -132 199 -244 244 -49 20 -74 22 -335 25
l-283 3 -2 -436z m588 273 c117 -62 179 -195 154 -328 -20 -106 -77 -183 -164
-222 -46 -20 -69 -23 -243 -26 l-193 -4 0 307 0 307 198 -4 c191 -3 198 -4
248 -30z"/>
      <path d="M3870 4515 l0 -435 70 0 70 0 0 435 0 435 -70 0 -70 0 0 -435z"/>
      <path d="M6080 4515 l0 -435 70 0 70 0 0 435 0 435 -70 0 -70 0 0 -435z"/>
      <path d="M6760 4885 l0 -65 165 0 165 0 0 -370 0 -370 70 0 70 0 0 370 0 370
165 0 165 0 1 35 c1 19 2 49 3 65 l1 30 -402 0 -403 0 0 -65z"/>
      <path d="M8110 4524 c-113 -235 -206 -431 -208 -436 -2 -4 31 -8 73 -8 l76 0
70 148 c218 459 264 551 271 544 10 -10 318 -670 318 -682 0 -6 34 -10 80 -10
44 0 80 2 80 5 0 3 -46 101 -102 218 -56 117 -147 309 -203 427 l-102 215 -74
3 -74 2 -205 -426z"/>
      <path d="M9390 4515 l0 -435 355 0 355 0 0 65 0 65 -285 0 -285 0 0 370 0 370
-70 0 -70 0 0 -435z"/>
    </g>
    <g id="wordmark-access" fill="url(#daGradientLine)">
      <path d="M4157 3643 c-27 -52 -167 -403 -167 -418 0 -9 10 -15 26 -15 21 0 29
9 50 55 l25 55 108 0 108 0 20 -52 c18 -47 24 -53 52 -56 18 -2 31 1 31 8 0 6
-33 90 -73 188 -41 97 -81 195 -89 217 -13 33 -21 41 -46 43 -25 3 -34 -2 -45
-25z m94 -185 l28 -77 -84 -3 c-47 -2 -85 -2 -85 0 0 2 18 45 40 97 22 52 40
100 40 107 1 20 30 -39 61 -124z"/>
      <path d="M4964 3656 c-49 -22 -103 -84 -119 -139 -19 -63 -19 -91 0 -153 47
-158 254 -207 368 -87 l27 30 -20 18 c-20 18 -21 18 -48 -7 -40 -38 -65 -48
-120 -48 -91 0 -152 67 -152 168 0 68 19 113 63 146 65 50 146 44 202 -14 23
-24 30 -27 46 -17 11 7 19 17 19 22 0 17 -62 73 -93 84 -39 15 -136 13 -173
-3z"/>
      <path d="M5800 3638 c-186 -112 -123 -411 89 -426 71 -5 121 10 167 50 38 34
41 45 17 63 -14 10 -24 7 -62 -22 -43 -33 -49 -35 -108 -31 -49 3 -68 9 -89
28 -76 72 -81 187 -13 265 58 65 152 69 219 9 37 -33 37 -33 55 -14 16 18 16
21 2 44 -25 38 -94 66 -163 66 -50 0 -69 -5 -114 -32z"/>
      <path d="M6582 3443 l3 -228 155 0 155 0 0 25 0 25 -127 3 -128 3 0 75 c0 72
1 75 21 69 11 -4 63 -4 115 0 89 7 95 9 92 29 -3 19 -12 22 -83 29 -44 4 -95
6 -112 3 l-33 -5 0 70 0 69 124 0 c116 0 125 1 131 20 3 11 3 24 0 30 -4 6
-68 10 -161 10 l-154 0 2 -227z"/>
      <path d="M7429 3647 c-66 -44 -78 -114 -29 -170 23 -26 47 -39 107 -57 106
-30 123 -42 123 -85 0 -81 -137 -96 -216 -23 -19 17 -25 18 -43 6 -28 -17 -27
-25 12 -59 39 -35 84 -49 157 -49 96 0 166 65 156 145 -7 56 -47 88 -149 120
-111 34 -137 62 -102 112 31 44 140 39 185 -9 l20 -22 22 21 c19 19 20 24 7
39 -45 55 -188 73 -250 31z"/>
      <path d="M8255 3655 c-48 -25 -65 -52 -65 -105 0 -77 42 -113 168 -141 67 -14
92 -34 92 -69 0 -87 -159 -103 -227 -22 -14 17 -41 9 -49 -13 -16 -41 80 -94
169 -95 105 0 167 50 167 136 0 73 -33 98 -182 139 -73 20 -100 53 -77 93 27
49 115 53 181 8 30 -20 37 -21 54 -9 22 16 14 35 -30 67 -36 28 -157 34 -201
11z"/>
      <path d="M2390 3430 c0 -20 5 -20 527 -18 493 3 528 4 531 21 3 16 -27 17
-527 17 -525 0 -531 0 -531 -20z"/>
      <path d="M9060 3430 c0 -20 5 -20 522 -18 489 3 523 4 526 21 3 16 -27 17
-522 17 -520 0 -526 0 -526 -20z"/>
    </g>
  </g>
</svg>